<svg width="100" height="100" viewBox="0 0 100 100" fill="none" xmlns="http://www.w3.org/2000/svg">
<path fill-rule="evenodd" clip-rule="evenodd" d="M12 0C5.37259 0 0 5.37259 0 12V88C0 94.6274 5.37259 100 12 100H88C94.6274 100 100 94.6274 100 88V12C100 5.37259 94.6274 0 88 0H12ZM36.765 68.84C37.3517 69.2433 38.3233 69.445 39.68 69.445C41.0367 69.445 42.0083 69.2433 42.595 68.84C43.1817 68.4366 43.5484 67.9233 43.695 67.3C43.8416 66.64 43.915 65.9616 43.915 65.265V58.06H50.955C52.495 58.06 54.0533 57.785 55.63 57.235C57.2066 56.6483 58.655 55.805 59.975 54.705C61.3316 53.5684 62.4133 52.1566 63.22 50.47C64.0634 48.7834 64.485 46.8217 64.485 44.585C64.485 42.3116 64.0634 40.3317 63.22 38.645C62.4133 36.9583 61.3316 35.5467 59.975 34.41C58.655 33.2367 57.2066 32.375 55.63 31.825C54.09 31.275 52.55 31 51.01 31H39.735C38.3783 31 37.4067 31.2017 36.82 31.605C36.2333 32.0083 35.8667 32.54 35.72 33.2C35.5733 33.8233 35.5 34.4833 35.5 35.18V65.21C35.5 65.9066 35.5733 66.585 35.72 67.245C35.8667 67.905 36.215 68.4366 36.765 68.84ZM51.01 49.7H43.915V39.36H50.955C51.9816 39.36 52.88 39.58 53.65 40.02C54.4566 40.46 55.08 41.065 55.52 41.835C55.96 42.605 56.18 43.5034 56.18 44.53C56.18 45.74 55.905 46.73 55.355 47.5C54.8416 48.27 54.1817 48.8383 53.375 49.205C52.605 49.535 51.8167 49.7 51.01 49.7Z" fill="#228E5D"/>
</svg>
