<svg width="100" height="100" viewBox="0 0 100 100" fill="none" xmlns="http://www.w3.org/2000/svg">
<path fill-rule="evenodd" clip-rule="evenodd" d="M12 0C5.37258 0 0 5.37258 0 12V88C0 94.6274 5.37258 100 12 100H88C94.6274 100 100 94.6274 100 88V12C100 5.37258 94.6274 0 88 0H12ZM70.4854 25.0381C71.5001 24.8812 72.5356 25.2159 73.2783 25.9168C74.021 26.6282 74.3976 27.6324 74.3243 28.6471L71.2699 60.9404L71.2636 61.0273C71.2344 61.4259 71.2058 61.816 71.1862 62.2062C70.9247 66.5998 67.2846 70.0833 62.8285 70.0833C58.1423 70.0833 54.3661 66.2441 54.4602 61.5366C54.5544 57.0175 58.2887 53.3561 62.8075 53.3457C63.6758 53.3457 64.5021 53.4712 65.2866 53.7118L66.7511 37.7796L45.1087 40.9598L42.8074 65.878C42.7656 66.286 42.7447 66.6835 42.7238 67.0915C42.4832 71.4956 38.8325 75 34.366 75C29.6275 75 25.799 71.0562 26.0082 66.265C26.1965 61.9342 29.7216 58.4297 34.0522 58.2728C34.9936 58.2414 35.9036 58.367 36.7614 58.618L39.1882 32.2248C39.3242 30.687 40.5062 29.4422 42.0334 29.2225L70.4854 25.0381Z" fill="#228E5D"/>
</svg>
