<svg width="100" height="100" viewBox="0 0 100 100" fill="none" xmlns="http://www.w3.org/2000/svg">
<path fill-rule="evenodd" clip-rule="evenodd" d="M12 0C5.37258 0 0 5.37259 0 12V88C0 94.6274 5.37258 100 12 100H88C94.6274 100 100 94.6274 100 88V12C100 5.37259 94.6274 0 88 0H12ZM63.63 69.4664C64.2533 69.2464 64.9866 68.7698 65.83 68.0364C67.0766 66.9731 67.6816 66.0198 67.645 65.1764C67.645 64.3331 67.1317 63.3431 66.105 62.2064L55.5214 49.8477L66.105 37.5114C67.1317 36.4114 67.645 35.4214 67.645 34.5414C67.6816 33.6614 67.0766 32.6898 65.83 31.6264C65.0233 30.8564 64.3083 30.3614 63.685 30.1414C63.0617 29.9214 62.4566 29.9581 61.87 30.2514C61.2833 30.5448 60.6417 31.1131 59.945 31.9564L50.0725 43.4848L40.2 31.9564C39.5033 31.1131 38.8616 30.5448 38.275 30.2514C37.6884 29.9581 37.0834 29.9214 36.46 30.1414C35.8367 30.3614 35.1217 30.8564 34.315 31.6264C33.105 32.6898 32.5 33.6614 32.5 34.5414C32.5 35.4214 33.0133 36.4114 34.04 37.5114L44.6236 49.8477L34.04 62.2064C33.0133 63.3431 32.5 64.3331 32.5 65.1764C32.5 66.0198 33.105 66.9731 34.315 68.0364C35.1583 68.7698 35.8917 69.2464 36.515 69.4664C37.1384 69.6864 37.7434 69.6498 38.33 69.3564C38.9166 69.0631 39.54 68.5131 40.2 67.7064L50.0725 56.199L59.945 67.7064C60.6417 68.5131 61.265 69.0631 61.815 69.3564C62.4016 69.6498 63.0067 69.6864 63.63 69.4664Z" fill="#228E5D"/>
</svg>
