<svg width="100" height="100" viewBox="0 0 100 100" fill="none" xmlns="http://www.w3.org/2000/svg">
<path fill-rule="evenodd" clip-rule="evenodd" d="M12 0C5.37258 0 0 5.37258 0 12V88C0 94.6274 5.37258 100 12 100H88C94.6274 100 100 94.6274 100 88V12C100 5.37258 94.6274 0 88 0H12ZM36.7127 60.2557C38.6601 62.8538 40.6121 65.4581 42.1919 65.4581C45.1607 65.4581 48.443 60.5742 51.7978 55.5824C56.3672 48.7834 61.071 41.7843 65.3 46.6544C67.9591 49.7182 70.6996 56.4234 73.1136 62.3299C73.9544 64.3872 74.7556 66.3475 75.5 68.0234V70.4C75.5 73.2203 73.2203 75.5 70.4 75.5H29.6C28.2474 75.5 26.9502 74.9627 25.9938 74.0062C25.0373 73.0498 24.5 71.7526 24.5 70.4V68.7221C25.4663 66.5556 26.4508 64.1171 27.3424 61.9085C28.2202 59.7343 29.008 57.7829 29.6 56.5331C31.2743 53.0002 33.9889 56.6219 36.7127 60.2557ZM39.8 32.15C39.8 36.3779 36.3779 39.8 32.15 39.8C27.9221 39.8 24.5 36.3779 24.5 32.15C24.5 27.9221 27.9221 24.5 32.15 24.5C36.3779 24.5 39.8 27.9221 39.8 32.15Z" fill="#228E5D"/>
</svg>
