<svg width="100" height="102" viewBox="0 0 100 102" fill="none" xmlns="http://www.w3.org/2000/svg">
<path fill-rule="evenodd" clip-rule="evenodd" d="M12 0C5.37259 0 0 5.47252 0 12.2232V89.6368C0 96.3875 5.37259 101.86 12 101.86H88C94.6274 101.86 100 96.3875 100 89.6368V12.2232C100 5.47252 94.6274 0 88 0H12ZM37.4125 70.3632C37.9625 70.7367 38.7141 70.9234 39.6675 70.9234C40.6942 70.9234 41.4825 70.718 42.0325 70.3072C42.6191 69.859 43.0408 69.3735 43.2975 68.8506C43.5542 68.3277 43.7009 67.9729 43.7375 67.7861L50.0625 46.8895L56.3875 67.7861C56.4609 67.9729 56.6075 68.3277 56.8275 68.8506C57.0842 69.3361 57.5059 69.8029 58.0925 70.2511C58.6791 70.6993 59.4675 70.9234 60.4575 70.9234C61.4842 70.9234 62.2542 70.7367 62.7675 70.3632C63.3175 69.9897 63.7025 69.5789 63.9225 69.1307C64.1792 68.6452 64.3441 68.2903 64.4175 68.0662L74.7575 37.5337C75.051 36.488 75.179 35.6476 75.1425 35.0127C75.1425 34.3404 74.9225 33.7802 74.4825 33.332C74.0425 32.8838 73.2725 32.4543 72.1725 32.0435C71.1459 31.67 70.2841 31.5206 69.5875 31.5953C68.9275 31.67 68.3775 31.9688 67.9375 32.4917C67.5341 32.9772 67.1675 33.7428 66.8375 34.7886L60.0175 55.6292L54.1875 34.9566C54.0775 34.6952 53.9125 34.3217 53.6925 33.8362C53.4725 33.3507 53.0692 32.9025 52.4825 32.4917C51.9325 32.0808 51.0891 31.8754 49.9525 31.8754C48.9625 31.8754 48.1925 32.0621 47.6425 32.4356C47.0925 32.8091 46.6891 33.2386 46.4325 33.7242C46.2125 34.2097 46.0475 34.6392 45.9375 35.0127L40.1625 55.5171L33.2875 34.7326C32.9575 33.6868 32.5725 32.9212 32.1325 32.4356C31.7292 31.9501 31.1975 31.6887 30.5375 31.6513C29.9142 31.614 29.0892 31.7633 28.0625 32.0995C26.4858 32.6224 25.5325 33.276 25.2025 34.0603C24.8725 34.8073 24.9458 35.9651 25.4225 37.5337L35.7625 68.0662C35.8359 68.253 35.9825 68.5892 36.2025 69.0747C36.4592 69.5602 36.8625 69.9897 37.4125 70.3632Z" fill="#228E5D"/>
</svg>
