<svg width="100" height="100" viewBox="0 0 100 100" fill="none" xmlns="http://www.w3.org/2000/svg">
<path fill-rule="evenodd" clip-rule="evenodd" d="M12 0C5.37256 0 0 5.37259 0 12V88C0 94.6274 5.37256 100 12 100H88C94.6274 100 100 94.6274 100 88V12C100 5.37259 94.6274 0 88 0H12ZM47.4119 56.9C47.9619 57.23 48.8602 57.395 50.1069 57.395C51.3535 57.395 52.2518 57.2484 52.8019 56.955C53.3519 56.6617 53.7002 56.2584 53.8469 55.745C53.9935 55.2317 54.0669 54.6816 54.0669 54.095V52.4952C54.4058 52.387 54.8091 52.2419 55.2769 52.06C55.9369 51.7667 56.6519 51.3817 57.4219 50.905C58.2285 50.3917 58.9802 49.75 59.6769 48.98C60.3735 48.1733 60.9419 47.2017 61.3818 46.065C61.8219 44.9283 62.0419 43.6083 62.0419 42.105C62.0419 39.8683 61.5103 37.8884 60.4469 36.165C59.4202 34.4417 57.9902 33.0667 56.1569 32.04C54.3235 31.0133 52.2152 30.5 49.8319 30.5C48.1453 30.5 46.6785 30.72 45.4319 31.16C44.1852 31.6 43.1218 32.1683 42.2418 32.865C41.3618 33.525 40.6469 34.2217 40.0969 34.955C39.5835 35.6516 39.1802 36.3116 38.8868 36.935C38.5935 37.5216 38.4102 37.9616 38.3369 38.255C38.0802 39.135 37.9702 39.85 38.0068 40.4C38.0436 40.95 38.3002 41.4266 38.7769 41.83C39.2535 42.1967 40.0052 42.5817 41.0319 42.985C41.9852 43.3517 42.7552 43.4984 43.3419 43.425C43.9285 43.315 44.4053 43.0034 44.7719 42.49C45.1752 41.9767 45.5236 41.28 45.8169 40.4C46.0002 39.9966 46.2568 39.63 46.5869 39.3C46.9169 38.97 47.3569 38.695 47.9069 38.475C48.4569 38.255 49.0985 38.145 49.8319 38.145C51.4086 38.145 52.5819 38.4933 53.3519 39.19C54.1218 39.85 54.5068 40.8766 54.5068 42.27C54.5068 43.2234 54.3052 43.975 53.9019 44.525C53.4985 45.075 52.9852 45.5334 52.3618 45.9C51.7385 46.23 51.0785 46.5417 50.3818 46.835C49.6852 47.1284 49.0253 47.4767 48.4019 47.88C47.7786 48.2466 47.2653 48.7416 46.8618 49.365C46.4585 49.9517 46.2568 50.7584 46.2568 51.785V53.765C46.2568 54.3883 46.3119 54.975 46.4219 55.525C46.5685 56.075 46.8986 56.5334 47.4119 56.9ZM46.4219 68.89C47.0085 69.5866 48.2002 69.935 49.9968 69.935C51.5002 69.935 52.5635 69.715 53.1869 69.275C53.8469 68.7983 54.2319 68.23 54.3419 67.57C54.4885 66.8734 54.5619 66.1767 54.5619 65.48C54.5619 63.83 54.2686 62.675 53.6819 62.015C53.1318 61.3184 51.9219 60.97 50.0519 60.97C48.5486 60.97 47.4852 61.19 46.8618 61.63C46.2385 62.07 45.8535 62.6384 45.7069 63.335C45.5969 64.0316 45.5419 64.7284 45.5419 65.425C45.5419 67.0384 45.8352 68.1934 46.4219 68.89Z" fill="#228E5D"/>
</svg>
