<svg width="100" height="100" viewBox="0 0 100 100" fill="none" xmlns="http://www.w3.org/2000/svg">
<path d="M88.2353 0H61.7647C63.5294 0 64.7059 1.17647 64.7059 2.94118C64.7059 4.70588 63.5294 5.88235 61.7647 5.88235H55.8824C54.1176 5.88235 52.9412 4.70588 52.9412 2.94118C52.9412 1.17647 54.1176 0 55.8824 0H11.7647C5.29412 0 0 5.29412 0 11.7647V88.2353C0 94.7059 5.29412 100 11.7647 100H88.2353C94.7059 100 100 94.7059 100 88.2353V11.7647C100 5.29412 94.7059 0 88.2353 0ZM38.2353 5.88235H44.1176C45.8824 5.88235 47.0588 7.05882 47.0588 8.82353C47.0588 10.5882 45.8824 11.7647 44.1176 11.7647H38.2353C36.4706 11.7647 35.2941 10.5882 35.2941 8.82353C35.2941 7.05882 36.4706 5.88235 38.2353 5.88235ZM38.2353 17.6471H44.1176C45.8824 17.6471 47.0588 18.8235 47.0588 20.5882C47.0588 22.3529 45.8824 23.5294 44.1176 23.5294H38.2353C36.4706 23.5294 35.2941 22.3529 35.2941 20.5882C35.2941 18.8235 36.4706 17.6471 38.2353 17.6471ZM38.2353 29.4118H44.1176C45.8824 29.4118 47.0588 30.5882 47.0588 32.3529C47.0588 34.1176 45.8824 35.2941 44.1176 35.2941H38.2353C36.4706 35.2941 35.2941 34.1176 35.2941 32.3529C35.2941 30.5882 36.4706 29.4118 38.2353 29.4118ZM64.7059 58.8235C64.7059 65.2941 59.4118 70.5882 52.9412 70.5882H47.0588C40.5882 70.5882 35.2941 65.2941 35.2941 58.8235V41.1765H64.7059V58.8235ZM61.7647 29.4118H55.8824C54.1176 29.4118 52.9412 28.2353 52.9412 26.4706C52.9412 24.7059 54.1176 23.5294 55.8824 23.5294H61.7647C63.5294 23.5294 64.7059 24.7059 64.7059 26.4706C64.7059 28.2353 63.5294 29.4118 61.7647 29.4118ZM61.7647 17.6471H55.8824C54.1176 17.6471 52.9412 16.4706 52.9412 14.7059C52.9412 12.9412 54.1176 11.7647 55.8824 11.7647H61.7647C63.5294 11.7647 64.7059 12.9412 64.7059 14.7059C64.7059 16.4706 63.5294 17.6471 61.7647 17.6471Z" fill="#228E5D"/>
</svg>
