<svg width="100" height="100" viewBox="0 0 100 100" fill="none" xmlns="http://www.w3.org/2000/svg">
<path fill-rule="evenodd" clip-rule="evenodd" d="M12 0C5.37258 0 0 5.37258 0 12V88C0 94.6274 5.37258 100 12 100H88C94.6274 100 100 94.6274 100 88V12C100 5.37258 94.6274 0 88 0H12ZM29.9811 74.5025C30.9736 75 31.4698 75 32.4622 75C33.4547 75 33.9509 75 34.9434 74.5025L69.6791 54.602C71.1677 53.607 72.1602 52.1144 72.1602 50.1244C72.1602 48.1343 71.1677 46.6418 69.6791 45.6468L34.9434 25.7463C33.4547 24.7512 31.4698 24.7512 29.9811 25.7463C28.4924 26.7413 27.5 28.2338 27.5 30.2239V70.0249C27.5 72.0149 28.4924 73.5075 29.9811 74.5025ZM57.2735 50.1244L37.4245 61.5672V38.6816L57.2735 50.1244Z" fill="#228E5D"/>
</svg>
